Alice, an unpretentious and individual 19-year-old, is betrothed to a dunce of an English nobleman. At her engagement party, she escapes the crowd to consider whether to go through with the marriage and falls down a hole in the garden after spotting an unusual rabbit. Arriving in a strange and surreal place called  "Underland," she finds herself in a world that resembles the nightmares she had as a child, filled with talking animals, villainous queens and knights, and frumious bandersnatches. Alice realizes that she is there for a reason--to conquer the horrific Jabberwocky and restore the rightful queen to her throne
 
http://www.imdb.com/title/tt1014759/

Subtitles (srt) : Dutch, English, French.

Covers included.

Dit vervolg op het originele verhaal begint op een groot feest, waar Alice (Mia Wasikowska), nu een 19-jarig meisje, op het punt staat om uitgehuwelijkt te 
worden in het bijzijn van honderden saaie, hoge pieten. Hier heeft Alice totaal geen zin in en ze besluit te ontsnappen, waarna ze tot haar schrik en verbazing al snel in contact komt met een pratend, wit konijn. Het konijn geeft aan dat ze hem moet volgen en hij vertelt ook over hun eerdere ontmoeting. Het konijn is er namelijk van overtuigd dat Alice het meisje is dat eerder in het magische 'Wonderland' is geweest en daar samen met hem en de vele andere  wezens de spannendste en mooiste avonturen beleefde. Alice weet daar echter helemaal niks meer van. Alle wezens in 'Wonderland' wachten met smart op Alice, want die hebben haar hulp nodig. Maar kan Alice wel helpen? En hoe moet ze weer terugkeren naar huis?
 
http://www.moviemeter.nl/film/56715

Ondertitels (srt) : Engels, Frans, Nederlands.

Hoesjes bijgevoegd.

General
Complete name                    : Alice in Wonderland-AC3-5,1-DVDRip[Eng]2010.avi
Format                           : AVI
Format/Info                      : Audio Video Interleave
File size                        : 1.36 GiB
Duration                         : 1h 48mn
Overall bit rate                 : 1 797 Kbps
Writing application              : VirtualDubMod 1.5.4.1 (build 2178/release)
Writing library                  : VirtualDubMod build 2178/release

Video
ID                               : 0
Format                           : MPEG-4 Visual
Format profile                   : Simple@L3
Format settings, BVOP            : No
Format settings, QPel            : No
Format settings, GMC             : No warppoints
Format settings, Matrix          : Default (H.263)
Codec ID                         : XVID
Codec ID/Hint                    : XviD
Duration                         : 1h 48mn
Bit rate                         : 1 404 Kbps
Width                            : 720 pixels
Height                           : 400 pixels
Display aspect ratio             : 16:9
Frame rate                       : 23.976 fps
Resolution                       : 24 bits
Colorimetry                      : 4:2:0
Scan type                        : Progressive
Bits/(Pixel*Frame)               : 0.203
Stream size                      : 1.07 GiB (78%)
Writing library                  : XviD 1.1.2 (UTC 2006-11-01)

Audio
ID                               : 1
Format                           : AC-3
Format/Info                      : Audio Coding 3
Codec ID                         : 2000
Duration                         : 1h 48mn
Bit rate mode                    : Constant
Bit rate                         : 384 Kbps
Channel(s)                       : 6 channels
Channel positions                : Front: L C R, Surround: L R, LFE
Sampling rate                    : 48.0 KHz
Stream size                      : 298 MiB (21%)
Alignment                        : Split accross interleaves
Interleave, duration             : 42 ms (1.00 video frame)
Interleave, preload duration     : 500 ms

Brought to you by 
2Lions Team

meer zien??
Kom dan eens kijken op ons forum 
                    
http://www.2lions.ons-forum.nl

2Lions the site to be for all your Dutch MOVIES and more

******************************************

DON T HIT AND RUN Niet gelijk afhaken als de FILM binnen is blijf seeden. 

Don`t quit after you finished the download, but keep seeding

There are fake torrents from uploaders who use our team name.
Those are not ours, or members from our team.
We 2Lions-Team are not responsible for the fake posts on our name

Wij 2Lions-Team zijn niet verantwoordelijk voor die zieke FAKE posten die op onze naam worden gedaan

Please check our site !!!

to the fakers , get a life !!!